<?xml version="1.0" encoding="utf-8"?>
<svg version="1.1" xmlns="http://www.w3.org/2000/svg" x="0px" y="0px"
	 viewBox="0 0 170.6 56.7" xml:space="preserve">
<g fill="#FFFFFF" stroke="#FFFFFF">
	<polygon points="-0.4,56.7 5.9,18.6 12.2,56.7" stroke="none"/>
	<line x1="5.9" y1="14.2" x2="5.9" y2="21.8" stroke-width="0.68" fill="none" stroke-linecap="round" stroke-linejoin="round"/>
	<polygon points="4.9,20.7 5.9,21.3 7,20.7 5.9,20.7" stroke="none"/>
	<polygon points="4.3,23.4 5.9,24.2 7.5,23.4 5.9,23.3" stroke="none"/>
	<polygon points="8.1,26 5.9,26 3.8,26 5.9,27.1" stroke="none"/>
	<polygon points="8.6,28.6 5.9,28.6 3.3,28.6 5.9,30" stroke="none"/>
	<polygon points="9.1,31.3 5.9,31.2 2.7,31.3 5.9,32.9" stroke="none"/>
	<polygon points="9.7,33.9 5.9,33.8 2.2,33.9 5.9,35.8" stroke="none"/>
	<polygon points="10.2,36.5 5.9,36.4 1.7,36.5 5.9,38.7" stroke="none"/>
	<polygon points="10.7,39.2 5.9,39.1 1.1,39.2 5.9,41.6" stroke="none"/>
	<polygon points="0.6,41.8 5.9,44.5 11.3,41.8 5.9,41.7" stroke="none"/>
	<polygon points="0.1,44.5 5.9,47.4 11.8,44.5 5.9,44.3" stroke="none"/>
	<polygon points="0,47.1 0,47.3 5.9,50.3 12.3,47.1 5.9,46.9" stroke="none"/>
	<polygon points="0,49.7 0,50.2 5.9,53.2 12.9,49.7 5.9,49.6" stroke="none"/>
	<polygon points="0,52.3 0,53.1 5.9,56.1 13.4,52.4 5.9,52.2" stroke="none"/>
	<path d="M4.9,15.4L6,15.8l1-0.4L5.9,15L4.9,15.4z" stroke="none"/>
	<path d="M4.1,18.1l1.8,0.5l1.8-0.5c-1.8-0.5-1.8-0.5-1.8-0.5L4.1,18.1z" stroke="none"/>
	<polygon points="11.1,56.7 17.4,18.6 23.7,56.7" stroke="none"/>
	<line x1="17.4" y1="14.2" x2="17.4" y2="21.8" stroke-width="0.68" fill="none" stroke-linecap="round" stroke-linejoin="round"/>
	<polygon points="17.4,20.7 16.3,20.7 17.4,21.3 18.4,20.7" stroke="none"/>
	<polygon points="19,23.4 17.4,23.3 15.8,23.4 17.4,24.2" stroke="none"/>
	<polygon points="19.5,26 17.4,26 15.2,26 17.4,27.1" stroke="none"/>
	<polygon points="20,28.6 17.4,28.6 14.7,28.6 17.4,30" stroke="none"/>
	<polygon points="20.6,31.3 17.4,31.2 14.2,31.3 17.4,32.9" stroke="none"/>
	<polygon points="21.1,33.9 17.4,33.8 13.6,33.9 17.4,35.8" stroke="none"/>
	<polygon points="21.6,36.5 17.4,36.4 13.1,36.5 17.4,38.7" stroke="none"/>
	<polygon points="22.2,39.2 17.4,39.1 12.6,39.2 17.4,41.6" stroke="none"/>
	<polygon points="22.7,41.8 17.4,41.7 12,41.8 17.4,44.5" stroke="none"/>
	<polygon points="23.2,44.5 17.4,44.3 11.5,44.5 17.4,47.4" stroke="none"/>
	<polygon points="23.8,47.1 17.4,46.9 11,47.1 17.4,50.3" stroke="none"/>
	<polygon points="24.3,49.7 17.4,49.6 10.4,49.7 17.4,53.2" stroke="none"/>
	<polygon points="17.4,52.2 9.9,52.4 17.4,56.1 24.8,52.4" stroke="none"/>
	<path d="M16.3,15.4l1.1,0.4l1.1-0.4L17.4,15L16.3,15.4z" stroke="none"/>
	<path d="M15.5,18.1l1.8,0.5l1.8-0.5c-1.8-0.5-1.8-0.5-1.8-0.5L15.5,18.1z" stroke="none"/>
	<path d="M0,9.6c1.3-0.1,2.7-0.1,4-0.1c33.4,0,62.2,19.2,76.2,47.2" fill="none" stroke-width="1.06" stroke-miterlimit="3.86"/>
	<path d="M0,19.8c1.3-0.1,2.7-0.1,4.1-0.1c27.5,0,51.6,14.9,64.6,37" fill="none" stroke-width="1.06" stroke-miterlimit="3.86"/>
	<path d="M0,30c1.4-0.1,2.7-0.1,4.1-0.1c21.6,0,40.7,10.5,52.4,26.8" fill="none" stroke-width="1.06" stroke-miterlimit="3.86"/>
	<path d="M0,40.3c1.4-0.1,2.7-0.2,4.1-0.2c15.3,0,29.2,6.3,39.1,16.5" fill="none" stroke-width="1.06" stroke-miterlimit="3.86"/>
	<path d="M17.1,52.3c3.4,1.1,6.7,2.5,9.8,4.4" fill="none" stroke-width="1.06" stroke-miterlimit="3.86"/>
	<path d="M67.1,9.5H69c0.5,0,0.9,0.4,0.9,0.9v17c0,0.5-0.4,0.9-0.9,0.9h-1.9c-0.5,0-0.9-0.4-0.9-0.9l0,0v-17
		C66.1,9.9,66.6,9.5,67.1,9.5L67.1,9.5z" stroke="none"/>
	<path d="M85.1,10.4c0-0.5,0.4-0.9,0.9-0.9l0,0h1.9c0.5,0,0.9,0.4,0.9,0.9l0,0v17c0,0.5-0.4,0.9-0.9,0.9l0,0H86
		c-0.5,0-0.9-0.4-0.9-0.9l0,0v-7h-7.6v7c0,0.5-0.4,0.9-0.9,0.9l0,0h-1.9c-0.5,0-0.9-0.4-0.9-0.9v-17c0-0.5,0.4-0.9,0.9-0.9h1.9
		c0.5,0,0.9,0.4,0.9,0.9v6.9H85L85.1,10.4z" stroke="none"/>
	<path d="M107.6,10.4c0.5-0.5,0.4-0.9-0.1-0.9H105c-0.5,0-0.8-0.1-1.6,0.8L96.3,18v-7.5c0-0.5-0.4-0.9-0.9-0.9
		h-1.7c-0.5,0-0.9,0.4-0.9,0.9l0,0v17c0,0.5,0.4,0.9,0.9,0.9l0,0h1.7c0.5,0,0.9-0.4,0.9-0.9l0,0V23l3.1-3.4l4.9,7.9
		c0.2,0.5,0.7,0.9,1.3,0.9h2.6c0.5,0,0.7-0.4,0.4-0.9L101.9,17L107.6,10.4z" stroke="none"/>
	<polygon points="135.6,28.4 128.1,18.5 135.1,9.5 131.8,9.5 125.4,17.9 125.3,17.9 125.3,9.5 122.6,9.5 122.6,28.4
		125.3,28.4 125.3,19.2 125.4,19.2 132.3,28.4" stroke="none"/>
	<path d="M146.9,9.7h-3.4v3h3.4V9.7z M141.3,9.7h-3.4v3h3.4V9.7z M148.2,21.9c0-3.9-1.6-6.9-5.7-6.9s-5.8,3-5.8,6.8
		s1.6,6.8,5.8,6.8S148.3,25.6,148.2,21.9 M145.5,21.8c0,2-0.4,4.9-3,4.9s-3-2.8-3-4.9s0.3-4.9,3-4.9S145.5,19.8,145.5,21.8" stroke="none"/>
	<rect x="151.6" y="9.5" width="2.5" height="18.9" stroke="none"/>
	<path d="M168.6,28.4v-9c0-2.3-0.9-4.3-3.5-4.3c-1.9,0-3.6,1.3-4.1,3.1h-0.1v-2.8h-2.5v13h2.5v-5.5c0-1.9,1-5.3,3.4-5.3
		c1.4,0,1.7,0.9,1.8,2.1c0,0.5,0,1.1,0,1.6v7.1H168.6z" stroke="none"/>
</g>
</svg>
