<svg xmlns="http://www.w3.org/2000/svg" xmlns:xlink="http://www.w3.org/1999/xlink" width="346.896" height="87.519" viewBox="0 0 346.896 87.519"><defs><clipPath id="a"><rect width="346.895" height="87.519" fill="none"/></clipPath><clipPath id="b"><path d="M0-83.1H346.9v-87.519H0Z" transform="translate(0 170.618)"/></clipPath><clipPath id="c"><path d="M0-83.1H346.9v-87.519H0Z" transform="translate(0 170.618)" fill="none"/></clipPath></defs><g clip-path="url(#a)"><g transform="translate(0 0)" clip-path="url(#b)"><g transform="translate(0 10.243)"><path d="M-33.2-14.262V-27.668H-68.171V33.223h15.829V9.319H-34.98V-4.087H-52.342V-14.262ZM141.276-26.215a37.142,37.142,0,0,0-14.455-3.068,33,33,0,0,0-23.178,9.852A31.867,31.867,0,0,0,94.679,2.858c0,9.045,3.068,16.959,9.772,23.016a33.9,33.9,0,0,0,22.855,8.964c4.926,0,8.722-1.211,13.971-2.826V13.034a18.207,18.207,0,0,1-13.648,6.461c-9.852,0-16.474-6.945-16.474-16.555,0-9.449,6.542-16.878,16.232-16.878a17.177,17.177,0,0,1,13.89,6.7Zm58.064-1.454V4.393c0,7.914-.565,16.555-10.741,16.555s-10.741-8.641-10.741-16.555V-27.668H162.03V6.573c0,7.833.323,15.586,6.38,21.481,5.087,5.007,13.083,6.784,20.189,6.784s15.1-1.777,20.19-6.784c6.056-5.9,6.38-13.648,6.38-21.481V-27.668Zm76.881,3.392a41.642,41.642,0,0,0-19.059-5.007c-12.194,0-21,8.075-21,20.431,0,11.791,6.541,14.375,16.474,17.2,3.392.969,9.61,2.5,9.61,6.945,0,4.28-3.957,6.137-7.672,6.137-5.411,0-10.095-2.826-14.052-6.3l-6.783,12.76a37.569,37.569,0,0,0,21.4,6.945c6.137,0,12.517-1.7,17.282-5.734,4.846-4.118,6.3-10.337,6.3-16.394,0-9.852-6.541-14.132-15.021-16.636l-4.038-1.212c-2.746-.888-7.026-2.261-7.026-5.814,0-3.392,3.876-5.088,6.784-5.088A16.654,16.654,0,0,1,269.922-12Z" transform="translate(68.171 29.283)"/></g></g><g transform="translate(107.197)"><path d="M0,0V5.976H34.888v16.96h5.975V0Z" fill="#c4c4c6"/></g><g transform="translate(107.197 64.584)"><path d="M-33.126,0V16.959H-68.014v5.976H-27.15V0Z" transform="translate(68.014)" fill="#c4c4c6"/></g><g transform="translate(51.326)"><path d="M0,0V22.936H5.976V5.976H40.863V0Z" fill="#c4c4c6"/></g><g transform="translate(51.326 64.584)"><path d="M0,0V22.935H40.863V16.959H5.976V0Z" fill="#c4c4c6"/></g><g transform="translate(0 0)" clip-path="url(#c)"><g transform="translate(75.874 19.076)"><path d="M-23.438-46.876A24.684,24.684,0,0,0,1.246-71.559,24.684,24.684,0,0,0-23.438-96.244,24.684,24.684,0,0,0-48.122-71.559,24.684,24.684,0,0,0-23.438-46.876" transform="translate(48.122 96.244)" fill="#00b8f1"/></g></g></g></svg>