<svg xmlns="http://www.w3.org/2000/svg" xmlns:xlink="http://www.w3.org/1999/xlink" id="Ebene_1" x="0px" y="0px" viewBox="0 0 247.37 74.61" style="enable-background:new 0 0 247.37 74.61;" xml:space="preserve">
<style type="text/css">
	.st0{fill:#B40A24;}
</style>
<g>
	<path class="st0" d="M246.82,61.03c0,2.21-0.41,4.14-1.23,5.81c-0.83,1.66-1.94,3.04-3.34,4.16c-1.42,1.11-3.05,1.95-4.93,2.51   c-1.88,0.56-3.89,0.84-6.04,0.84c-1.45,0-2.79-0.12-4.04-0.36c-1.24-0.24-2.33-0.53-3.29-0.87c-0.95-0.33-1.75-0.69-2.39-1.06   c-0.64-0.38-1.1-0.71-1.38-0.98c-0.28-0.29-0.48-0.7-0.6-1.23c-0.12-0.53-0.18-1.28-0.18-2.28c0-0.67,0.02-1.23,0.07-1.68   c0.04-0.45,0.11-0.82,0.21-1.11c0.1-0.28,0.23-0.48,0.39-0.6c0.17-0.12,0.35-0.18,0.58-0.18c0.3,0,0.73,0.18,1.28,0.54   c0.55,0.35,1.26,0.75,2.12,1.18c0.86,0.43,1.9,0.83,3.11,1.18c1.2,0.37,2.59,0.54,4.17,0.54c1.04,0,1.97-0.12,2.79-0.37   c0.83-0.25,1.53-0.6,2.1-1.05c0.58-0.45,1.01-1.01,1.32-1.67c0.3-0.66,0.45-1.4,0.45-2.22c0-0.95-0.25-1.77-0.77-2.44   c-0.52-0.69-1.19-1.28-2.04-1.81c-0.83-0.53-1.78-1.03-2.84-1.49c-1.05-0.46-2.15-0.95-3.28-1.47c-1.13-0.52-2.22-1.11-3.27-1.77   c-1.06-0.65-2.01-1.44-2.84-2.36c-0.84-0.92-1.52-2-2.04-3.26c-0.52-1.25-0.78-2.76-0.78-4.5c0-2,0.38-3.77,1.12-5.3   c0.74-1.52,1.75-2.78,3.01-3.78c1.27-1.01,2.75-1.76,4.47-2.26c1.72-0.5,3.54-0.74,5.47-0.74c0.98,0,1.98,0.08,2.98,0.23   c1,0.14,1.93,0.35,2.79,0.61c0.86,0.27,1.63,0.55,2.3,0.87c0.66,0.33,1.11,0.6,1.33,0.82c0.21,0.21,0.35,0.4,0.43,0.54   c0.08,0.15,0.14,0.35,0.2,0.61c0.06,0.24,0.09,0.55,0.11,0.94c0.02,0.38,0.03,0.84,0.03,1.41c0,0.62-0.01,1.15-0.04,1.58   c-0.03,0.43-0.09,0.79-0.17,1.07c-0.08,0.28-0.19,0.49-0.32,0.61c-0.14,0.13-0.33,0.2-0.58,0.2c-0.23,0-0.61-0.16-1.13-0.45   c-0.52-0.3-1.16-0.63-1.91-1c-0.76-0.35-1.64-0.67-2.63-0.96c-1-0.3-2.08-0.44-3.28-0.44c-0.93,0-1.74,0.11-2.43,0.34   c-0.69,0.22-1.26,0.54-1.73,0.94c-0.46,0.4-0.82,0.87-1.04,1.44c-0.23,0.56-0.34,1.16-0.34,1.78c0,0.93,0.25,1.74,0.76,2.41   c0.51,0.69,1.2,1.29,2.05,1.83c0.85,0.52,1.83,1.02,2.91,1.48c1.07,0.46,2.18,0.96,3.31,1.47c1.13,0.52,2.23,1.11,3.31,1.77   c1.08,0.66,2.05,1.45,2.9,2.37c0.84,0.92,1.53,1.99,2.05,3.24C246.57,57.89,246.82,59.35,246.82,61.03 M210.19,57.99   c0,2.57-0.38,4.87-1.14,6.89c-0.75,2.04-1.86,3.75-3.33,5.16c-1.47,1.4-3.29,2.48-5.44,3.21c-2.17,0.74-4.65,1.11-7.46,1.11   c-2.63,0-5-0.33-7.09-0.98c-2.1-0.66-3.87-1.66-5.32-3c-1.45-1.34-2.56-3.01-3.32-5.01c-0.76-2-1.15-4.34-1.15-7.01V32.83   c0-0.21,0.07-0.41,0.2-0.59c0.12-0.17,0.35-0.31,0.69-0.42c0.33-0.11,0.77-0.19,1.32-0.25c0.53-0.07,1.23-0.1,2.07-0.1   c0.81,0,1.49,0.03,2.02,0.1c0.54,0.07,0.97,0.14,1.29,0.25c0.32,0.11,0.55,0.25,0.7,0.42c0.14,0.18,0.21,0.38,0.21,0.59v24.78   c0,1.67,0.21,3.11,0.62,4.34c0.41,1.22,1,2.23,1.77,3.03c0.76,0.8,1.68,1.4,2.76,1.8c1.07,0.4,2.27,0.6,3.58,0.6   c1.34,0,2.54-0.21,3.6-0.62c1.06-0.41,1.96-1.01,2.7-1.79c0.73-0.8,1.31-1.77,1.7-2.92c0.4-1.16,0.6-2.48,0.6-3.95V32.83   c0-0.21,0.07-0.41,0.2-0.59c0.12-0.17,0.35-0.31,0.68-0.42c0.32-0.11,0.76-0.19,1.32-0.25c0.55-0.07,1.24-0.1,2.06-0.1   c0.82,0,1.49,0.03,2.02,0.1c0.53,0.07,0.96,0.14,1.28,0.25c0.32,0.11,0.55,0.25,0.67,0.42c0.13,0.18,0.2,0.38,0.2,0.59V57.99z    M168.56,72.36c0,0.24-0.06,0.45-0.18,0.63c-0.12,0.19-0.34,0.33-0.69,0.45c-0.33,0.12-0.79,0.21-1.37,0.28   c-0.59,0.07-1.32,0.1-2.2,0.1c-1.41,0-2.41-0.06-3.03-0.17c-0.62-0.1-1.06-0.27-1.33-0.49c-0.27-0.21-0.48-0.48-0.63-0.77   l-12.68-19.91v19.91c0,0.23-0.07,0.44-0.2,0.62c-0.12,0.17-0.35,0.32-0.67,0.43c-0.32,0.12-0.75,0.21-1.29,0.28   c-0.53,0.07-1.23,0.1-2.06,0.1c-0.82,0-1.5-0.03-2.06-0.1c-0.55-0.07-0.98-0.15-1.31-0.28c-0.32-0.12-0.55-0.27-0.7-0.43   c-0.14-0.18-0.21-0.39-0.21-0.62V32.86c0-0.24,0.07-0.44,0.21-0.62c0.14-0.17,0.38-0.31,0.7-0.42c0.32-0.11,0.75-0.19,1.31-0.25   c0.55-0.07,1.24-0.1,2.06-0.1c0.83,0,1.53,0.03,2.06,0.1c0.54,0.07,0.97,0.14,1.29,0.25c0.32,0.11,0.55,0.25,0.67,0.42   c0.13,0.18,0.2,0.38,0.2,0.62v17.87l12.28-17.83c0.16-0.28,0.33-0.51,0.55-0.7c0.21-0.19,0.5-0.33,0.84-0.44   c0.34-0.1,0.79-0.18,1.33-0.22c0.54-0.04,1.23-0.07,2.07-0.07c0.86,0,1.57,0.03,2.14,0.1c0.56,0.07,1.01,0.16,1.35,0.28   c0.33,0.11,0.56,0.27,0.69,0.43c0.13,0.18,0.2,0.36,0.2,0.59c0,0.37-0.1,0.74-0.29,1.14c-0.2,0.39-0.56,1-1.11,1.85l-11.48,15.08   l12.54,18.96c0.48,0.89,0.76,1.48,0.86,1.77C168.51,71.95,168.56,72.18,168.56,72.36z M128.88,61.03c0,2.21-0.41,4.14-1.23,5.81   c-0.83,1.66-1.94,3.04-3.34,4.16c-1.42,1.11-3.05,1.95-4.93,2.51c-1.88,0.56-3.89,0.84-6.04,0.84c-1.45,0-2.79-0.12-4.04-0.36   c-1.24-0.24-2.33-0.53-3.29-0.87c-0.95-0.33-1.75-0.69-2.39-1.06c-0.64-0.38-1.1-0.71-1.38-0.98c-0.28-0.29-0.48-0.7-0.6-1.23   c-0.12-0.53-0.18-1.28-0.18-2.28c0-0.67,0.02-1.23,0.07-1.68c0.04-0.45,0.11-0.82,0.21-1.11c0.1-0.28,0.23-0.48,0.39-0.6   c0.17-0.12,0.35-0.18,0.58-0.18c0.3,0,0.73,0.18,1.28,0.54c0.55,0.35,1.26,0.75,2.12,1.18c0.86,0.43,1.9,0.83,3.11,1.18   c1.2,0.37,2.59,0.54,4.17,0.54c1.04,0,1.97-0.12,2.79-0.37c0.83-0.25,1.53-0.6,2.1-1.05c0.58-0.45,1.01-1.01,1.32-1.67   c0.3-0.66,0.45-1.4,0.45-2.22c0-0.95-0.25-1.77-0.77-2.44c-0.52-0.69-1.19-1.28-2.04-1.81c-0.83-0.53-1.78-1.03-2.84-1.49   c-1.05-0.46-2.15-0.95-3.28-1.47c-1.13-0.52-2.22-1.11-3.27-1.77c-1.06-0.65-2.01-1.44-2.84-2.36c-0.84-0.92-1.52-2-2.04-3.26   c-0.52-1.25-0.77-2.76-0.77-4.5c0-2,0.38-3.77,1.12-5.3c0.74-1.52,1.75-2.78,3.01-3.78c1.27-1.01,2.75-1.76,4.47-2.26   c1.72-0.5,3.54-0.74,5.47-0.74c0.98,0,1.98,0.08,2.98,0.23c1,0.14,1.93,0.35,2.79,0.61c0.86,0.27,1.63,0.55,2.3,0.87   c0.66,0.33,1.11,0.6,1.33,0.82c0.21,0.21,0.35,0.4,0.43,0.54c0.08,0.15,0.14,0.35,0.2,0.61c0.06,0.24,0.09,0.55,0.11,0.94   c0.02,0.38,0.03,0.84,0.03,1.41c0,0.62-0.01,1.15-0.04,1.58c-0.03,0.43-0.09,0.79-0.17,1.07c-0.08,0.28-0.19,0.49-0.32,0.61   c-0.14,0.13-0.33,0.2-0.58,0.2c-0.23,0-0.61-0.16-1.13-0.45c-0.52-0.3-1.16-0.63-1.91-1c-0.76-0.35-1.64-0.67-2.63-0.96   c-1-0.3-2.08-0.44-3.28-0.44c-0.93,0-1.74,0.11-2.43,0.34c-0.69,0.22-1.26,0.54-1.73,0.94c-0.46,0.4-0.82,0.87-1.04,1.44   c-0.23,0.56-0.34,1.16-0.34,1.78c0,0.93,0.25,1.74,0.76,2.41c0.51,0.69,1.2,1.29,2.05,1.83c0.85,0.52,1.83,1.02,2.91,1.48   c1.07,0.46,2.18,0.96,3.31,1.47c1.13,0.52,2.23,1.11,3.31,1.77c1.08,0.66,2.05,1.45,2.9,2.37c0.84,0.92,1.53,1.99,2.05,3.24   C128.63,57.89,128.88,59.35,128.88,61.03z M76.27,39.65h-0.03L70.4,57.49h11.77L76.27,39.65z M95.53,70.45   c0.25,0.77,0.42,1.39,0.49,1.85c0.07,0.45-0.02,0.8-0.25,1.03c-0.24,0.22-0.66,0.37-1.27,0.42c-0.6,0.06-1.44,0.08-2.49,0.08   c-1.11,0-1.97-0.01-2.58-0.04c-0.62-0.03-1.08-0.1-1.42-0.2c-0.32-0.1-0.54-0.23-0.68-0.41c-0.13-0.17-0.24-0.4-0.32-0.67   l-2.76-8.43H68.43l-2.64,8.2c-0.09,0.31-0.2,0.56-0.34,0.76c-0.13,0.21-0.36,0.36-0.67,0.49c-0.31,0.12-0.75,0.2-1.33,0.24   c-0.58,0.04-1.33,0.07-2.26,0.07c-1,0-1.77-0.03-2.33-0.1c-0.56-0.07-0.95-0.22-1.16-0.46c-0.22-0.25-0.3-0.61-0.23-1.06   c0.07-0.45,0.23-1.05,0.49-1.81l12.92-37.23c0.12-0.36,0.28-0.66,0.45-0.88c0.17-0.23,0.44-0.4,0.82-0.52   c0.39-0.12,0.91-0.2,1.58-0.23c0.66-0.03,1.55-0.04,2.66-0.04c1.27,0,2.29,0.01,3.04,0.04c0.76,0.03,1.35,0.11,1.77,0.23   c0.42,0.12,0.72,0.3,0.91,0.53c0.18,0.24,0.34,0.56,0.46,0.97L95.53,70.45z M49.41,72.46c0,0.21-0.05,0.41-0.18,0.59   c-0.12,0.17-0.34,0.31-0.65,0.42c-0.31,0.1-0.73,0.19-1.25,0.25c-0.52,0.07-1.18,0.1-1.98,0.1c-0.79,0-1.44-0.03-1.96-0.1   c-0.52-0.07-0.93-0.15-1.24-0.25c-0.3-0.11-0.52-0.25-0.64-0.42c-0.13-0.18-0.2-0.38-0.2-0.59V38.31h-0.07L29.13,72.43   c-0.09,0.28-0.22,0.51-0.42,0.7c-0.2,0.19-0.45,0.33-0.8,0.44c-0.33,0.1-0.76,0.18-1.27,0.21c-0.52,0.03-1.15,0.04-1.88,0.04   c-0.74,0-1.36-0.02-1.88-0.08c-0.52-0.05-0.95-0.14-1.28-0.27c-0.33-0.12-0.6-0.27-0.8-0.43c-0.19-0.18-0.32-0.39-0.39-0.62   L8.72,38.31H8.65v34.15c0,0.21-0.05,0.41-0.18,0.59c-0.12,0.17-0.34,0.31-0.66,0.42c-0.33,0.1-0.75,0.19-1.26,0.25   c-0.51,0.07-1.16,0.1-1.96,0.1c-0.79,0-1.44-0.03-1.96-0.1c-0.52-0.07-0.94-0.15-1.25-0.25c-0.31-0.11-0.53-0.25-0.65-0.42   c-0.12-0.18-0.18-0.38-0.18-0.59V35.08c0-1.11,0.29-1.95,0.87-2.53c0.59-0.59,1.36-0.87,2.35-0.87h5.58c1,0,1.86,0.08,2.57,0.24   c0.72,0.17,1.34,0.43,1.86,0.81c0.51,0.38,0.95,0.87,1.29,1.49c0.34,0.62,0.65,1.38,0.91,2.29l9.04,24.99h0.13l9.36-24.94   c0.28-0.91,0.59-1.67,0.92-2.3c0.34-0.62,0.73-1.13,1.17-1.52c0.44-0.39,0.97-0.66,1.57-0.83c0.61-0.17,1.32-0.24,2.11-0.24h5.75   c0.59,0,1.08,0.08,1.5,0.23c0.42,0.14,0.77,0.37,1.04,0.66c0.28,0.29,0.48,0.64,0.62,1.06c0.14,0.42,0.21,0.91,0.21,1.45V72.46z"></path>
	<path d="M158.02,7.55c0,0.2,0,0.36-0.01,0.49c-0.01,0.13-0.03,0.24-0.05,0.31c-0.02,0.08-0.06,0.13-0.1,0.17   c-0.04,0.04-0.09,0.06-0.16,0.06c-0.07,0-0.16-0.02-0.26-0.06c-0.1-0.04-0.22-0.08-0.34-0.12c-0.13-0.04-0.27-0.08-0.43-0.11   c-0.16-0.04-0.33-0.05-0.52-0.05c-0.22,0-0.44,0.05-0.65,0.13c-0.21,0.09-0.44,0.24-0.67,0.44c-0.24,0.2-0.48,0.48-0.74,0.81   c-0.25,0.34-0.54,0.75-0.85,1.24v7.87c0,0.07-0.02,0.13-0.05,0.18c-0.04,0.05-0.09,0.09-0.17,0.13c-0.08,0.03-0.19,0.06-0.34,0.08   c-0.14,0.02-0.32,0.03-0.54,0.03c-0.22,0-0.4-0.01-0.54-0.03c-0.15-0.02-0.26-0.05-0.34-0.08c-0.09-0.04-0.15-0.08-0.18-0.13   c-0.03-0.05-0.05-0.11-0.05-0.18V6.78c0-0.07,0.01-0.13,0.04-0.18c0.03-0.05,0.08-0.09,0.16-0.13c0.08-0.04,0.18-0.07,0.31-0.08   c0.12-0.01,0.29-0.02,0.49-0.02c0.2,0,0.36,0,0.49,0.02c0.13,0.01,0.23,0.04,0.3,0.08c0.07,0.04,0.12,0.09,0.15,0.13   c0.03,0.05,0.05,0.11,0.05,0.18v1.74c0.33-0.48,0.64-0.87,0.92-1.18c0.29-0.3,0.56-0.54,0.82-0.71c0.26-0.17,0.51-0.29,0.76-0.36   c0.25-0.07,0.51-0.1,0.77-0.1c0.11,0,0.24,0,0.39,0.02c0.15,0.01,0.3,0.04,0.46,0.07c0.16,0.04,0.3,0.08,0.43,0.12   c0.13,0.05,0.22,0.09,0.27,0.13c0.05,0.05,0.09,0.09,0.1,0.13c0.02,0.04,0.04,0.09,0.05,0.15c0.01,0.06,0.02,0.15,0.03,0.27   C158.02,7.19,158.02,7.35,158.02,7.55 M145.45,11.59c0.03-1.15-0.23-2.06-0.77-2.72c-0.54-0.66-1.33-0.98-2.39-0.98   c-0.54,0-1.02,0.1-1.43,0.3c-0.41,0.2-0.75,0.48-1.03,0.82c-0.28,0.34-0.49,0.73-0.64,1.18c-0.15,0.45-0.24,0.92-0.25,1.41H145.45z    M147.66,12.24c0,0.34-0.09,0.59-0.26,0.74c-0.17,0.15-0.37,0.22-0.59,0.22h-7.86c0,0.67,0.07,1.27,0.2,1.8   c0.13,0.54,0.35,0.99,0.67,1.38c0.31,0.38,0.71,0.67,1.21,0.88c0.5,0.2,1.11,0.31,1.82,0.31c0.57,0,1.08-0.05,1.52-0.14   c0.45-0.09,0.83-0.2,1.15-0.31s0.59-0.22,0.8-0.31c0.21-0.1,0.36-0.14,0.47-0.14c0.06,0,0.12,0.01,0.17,0.05   c0.05,0.03,0.09,0.08,0.11,0.14c0.03,0.06,0.05,0.15,0.06,0.25c0.01,0.11,0.02,0.24,0.02,0.4c0,0.11,0,0.21-0.01,0.3   c-0.01,0.08-0.02,0.16-0.03,0.22c-0.01,0.07-0.04,0.13-0.07,0.18c-0.03,0.05-0.07,0.1-0.12,0.15c-0.05,0.05-0.19,0.13-0.43,0.24   c-0.24,0.11-0.55,0.22-0.93,0.33c-0.38,0.1-0.82,0.2-1.32,0.28c-0.5,0.09-1.03,0.13-1.6,0.13c-0.98,0-1.84-0.14-2.58-0.41   c-0.74-0.27-1.36-0.68-1.87-1.22c-0.5-0.54-0.89-1.22-1.14-2.04c-0.26-0.81-0.39-1.76-0.39-2.85c0-1.03,0.13-1.95,0.4-2.77   c0.26-0.82,0.65-1.52,1.15-2.09c0.5-0.57,1.11-1.01,1.82-1.32c0.71-0.3,1.5-0.46,2.38-0.46c0.94,0,1.74,0.15,2.4,0.45   c0.66,0.3,1.2,0.71,1.63,1.22c0.42,0.51,0.74,1.11,0.93,1.8c0.2,0.69,0.3,1.42,0.3,2.2V12.24z M135.24,6.75c0,0.04,0,0.07,0,0.11   c0,0.04-0.01,0.08-0.02,0.13c-0.01,0.05-0.02,0.09-0.04,0.15c-0.01,0.05-0.03,0.11-0.05,0.17l-4.08,11.37   c-0.04,0.1-0.09,0.18-0.14,0.24c-0.06,0.06-0.15,0.11-0.26,0.15c-0.12,0.04-0.26,0.06-0.44,0.08c-0.18,0.01-0.4,0.02-0.67,0.02   c-0.26,0-0.49-0.01-0.66-0.03c-0.18-0.02-0.32-0.05-0.43-0.08c-0.11-0.04-0.2-0.09-0.26-0.15c-0.06-0.06-0.11-0.14-0.15-0.23   l-4.07-11.37c-0.04-0.1-0.06-0.2-0.09-0.28c-0.02-0.08-0.04-0.14-0.04-0.18c0-0.04,0-0.07,0-0.1c0-0.07,0.02-0.13,0.05-0.19   c0.04-0.05,0.1-0.1,0.18-0.13c0.08-0.03,0.2-0.05,0.33-0.06c0.14-0.01,0.31-0.01,0.51-0.01c0.26,0,0.46,0,0.62,0.02   c0.15,0.01,0.28,0.04,0.36,0.08c0.09,0.03,0.15,0.08,0.19,0.13c0.04,0.05,0.08,0.12,0.11,0.2l3.38,9.87l0.05,0.16l0.04-0.16   l3.34-9.87c0.02-0.08,0.05-0.15,0.09-0.2c0.04-0.05,0.11-0.1,0.19-0.13c0.09-0.04,0.2-0.06,0.35-0.08   c0.15-0.01,0.34-0.02,0.58-0.02c0.2,0,0.37,0,0.5,0.01c0.13,0.01,0.24,0.03,0.31,0.07c0.08,0.03,0.13,0.08,0.16,0.12   C135.23,6.62,135.24,6.68,135.24,6.75z M121.87,18.75c0,0.07-0.02,0.13-0.05,0.18c-0.04,0.05-0.09,0.09-0.17,0.13   c-0.08,0.03-0.19,0.06-0.34,0.08c-0.14,0.02-0.32,0.03-0.53,0.03c-0.23,0-0.41-0.01-0.55-0.03c-0.15-0.02-0.25-0.05-0.34-0.08   c-0.08-0.04-0.14-0.08-0.17-0.13c-0.04-0.05-0.05-0.11-0.05-0.18v-7.01c0-0.68-0.05-1.23-0.16-1.65c-0.1-0.42-0.26-0.78-0.46-1.08   c-0.2-0.3-0.46-0.53-0.78-0.69c-0.32-0.16-0.69-0.24-1.12-0.24c-0.55,0-1.09,0.19-1.64,0.59c-0.55,0.39-1.12,0.96-1.72,1.72v8.37   c0,0.07-0.02,0.13-0.05,0.18c-0.04,0.05-0.09,0.09-0.17,0.13c-0.08,0.03-0.19,0.06-0.34,0.08c-0.14,0.02-0.32,0.03-0.54,0.03   c-0.22,0-0.4-0.01-0.54-0.03c-0.15-0.02-0.26-0.05-0.34-0.08c-0.09-0.04-0.15-0.08-0.18-0.13c-0.03-0.05-0.05-0.11-0.05-0.18V6.78   c0-0.07,0.01-0.13,0.04-0.18c0.03-0.05,0.08-0.09,0.16-0.13c0.08-0.04,0.18-0.07,0.31-0.08c0.12-0.01,0.29-0.02,0.49-0.02   c0.2,0,0.36,0,0.49,0.02c0.13,0.01,0.23,0.04,0.3,0.08c0.07,0.04,0.12,0.09,0.15,0.13c0.03,0.05,0.05,0.11,0.05,0.18v1.58   c0.67-0.76,1.34-1.31,2.01-1.66c0.67-0.35,1.34-0.53,2.02-0.53c0.79,0,1.47,0.14,2.01,0.4c0.54,0.27,0.98,0.64,1.32,1.08   c0.34,0.45,0.58,0.98,0.72,1.59c0.15,0.61,0.22,1.34,0.22,2.19V18.75z M106.01,11.59c0.03-1.15-0.23-2.06-0.77-2.72   c-0.54-0.66-1.33-0.98-2.39-0.98c-0.54,0-1.02,0.1-1.43,0.3c-0.41,0.2-0.75,0.48-1.03,0.82c-0.28,0.34-0.49,0.73-0.64,1.18   c-0.15,0.45-0.24,0.92-0.25,1.41H106.01z M108.22,12.24c0,0.34-0.09,0.59-0.26,0.74c-0.17,0.15-0.37,0.22-0.59,0.22H99.5   c0,0.67,0.07,1.27,0.2,1.8c0.13,0.54,0.35,0.99,0.67,1.38c0.31,0.38,0.71,0.67,1.21,0.88c0.5,0.2,1.11,0.31,1.82,0.31   c0.57,0,1.08-0.05,1.52-0.14c0.44-0.09,0.83-0.2,1.15-0.31s0.59-0.22,0.8-0.31c0.21-0.1,0.36-0.14,0.47-0.14   c0.06,0,0.12,0.01,0.17,0.05c0.05,0.03,0.09,0.08,0.11,0.14c0.03,0.06,0.05,0.15,0.06,0.25c0.01,0.11,0.02,0.24,0.02,0.4   c0,0.11,0,0.21-0.01,0.3c-0.01,0.08-0.02,0.16-0.03,0.22c-0.01,0.07-0.04,0.13-0.07,0.18c-0.03,0.05-0.07,0.1-0.12,0.15   c-0.05,0.05-0.2,0.13-0.43,0.24c-0.24,0.11-0.55,0.22-0.93,0.33c-0.38,0.1-0.82,0.2-1.32,0.28c-0.5,0.09-1.03,0.13-1.6,0.13   c-0.98,0-1.84-0.14-2.58-0.41c-0.74-0.27-1.36-0.68-1.87-1.22c-0.5-0.54-0.89-1.22-1.14-2.04c-0.26-0.81-0.39-1.76-0.39-2.85   c0-1.03,0.13-1.95,0.4-2.77c0.26-0.82,0.65-1.52,1.15-2.09c0.5-0.57,1.11-1.01,1.82-1.32c0.71-0.3,1.5-0.46,2.38-0.46   c0.94,0,1.74,0.15,2.4,0.45c0.66,0.3,1.2,0.71,1.63,1.22c0.42,0.51,0.74,1.11,0.93,1.8c0.2,0.69,0.3,1.42,0.3,2.2V12.24z    M94.23,2.74c0,0.52-0.1,0.87-0.29,1.05c-0.2,0.19-0.55,0.28-1.08,0.28c-0.52,0-0.87-0.09-1.06-0.27   c-0.19-0.18-0.29-0.53-0.29-1.03c0-0.52,0.1-0.87,0.29-1.05c0.2-0.19,0.55-0.28,1.08-0.28c0.52,0,0.87,0.09,1.06,0.27   C94.14,1.89,94.23,2.23,94.23,2.74z M93.99,18.75c0,0.07-0.02,0.13-0.05,0.18c-0.04,0.05-0.09,0.09-0.17,0.13   c-0.08,0.03-0.19,0.06-0.34,0.08c-0.14,0.02-0.32,0.03-0.54,0.03c-0.22,0-0.4-0.01-0.54-0.03c-0.15-0.02-0.26-0.05-0.34-0.08   c-0.09-0.04-0.15-0.08-0.18-0.13c-0.03-0.05-0.05-0.11-0.05-0.18V6.78c0-0.06,0.01-0.12,0.05-0.17c0.03-0.05,0.09-0.1,0.18-0.14   c0.08-0.03,0.2-0.06,0.34-0.08c0.14-0.02,0.32-0.03,0.54-0.03c0.22,0,0.4,0.01,0.54,0.03c0.15,0.02,0.25,0.05,0.34,0.08   c0.08,0.04,0.14,0.08,0.17,0.14c0.04,0.05,0.05,0.11,0.05,0.17V18.75z M87.74,18.75c0,0.07-0.02,0.13-0.05,0.18   c-0.04,0.05-0.09,0.09-0.17,0.13c-0.08,0.03-0.19,0.06-0.34,0.08c-0.14,0.02-0.32,0.03-0.54,0.03c-0.22,0-0.4-0.01-0.54-0.03   c-0.15-0.02-0.26-0.05-0.34-0.08c-0.09-0.04-0.15-0.08-0.18-0.13c-0.03-0.05-0.05-0.11-0.05-0.18V0.99c0-0.07,0.01-0.14,0.05-0.19   c0.03-0.05,0.09-0.1,0.18-0.14c0.08-0.03,0.2-0.06,0.34-0.08c0.14-0.02,0.32-0.03,0.54-0.03c0.22,0,0.4,0.01,0.54,0.03   c0.15,0.02,0.25,0.05,0.34,0.08c0.08,0.04,0.14,0.08,0.17,0.14c0.04,0.05,0.05,0.11,0.05,0.19V18.75z M81.73,2.74   c0,0.52-0.1,0.87-0.29,1.05c-0.2,0.19-0.55,0.28-1.08,0.28c-0.52,0-0.87-0.09-1.06-0.27c-0.19-0.18-0.29-0.53-0.29-1.03   c0-0.52,0.1-0.87,0.29-1.05c0.2-0.19,0.55-0.28,1.08-0.28c0.52,0,0.87,0.09,1.06,0.27C81.64,1.89,81.73,2.23,81.73,2.74z    M81.49,18.75c0,0.07-0.02,0.13-0.05,0.18c-0.04,0.05-0.09,0.09-0.17,0.13c-0.08,0.03-0.19,0.06-0.34,0.08   c-0.14,0.02-0.32,0.03-0.54,0.03c-0.22,0-0.4-0.01-0.54-0.03c-0.15-0.02-0.26-0.05-0.34-0.08c-0.09-0.04-0.15-0.08-0.18-0.13   c-0.03-0.05-0.05-0.11-0.05-0.18V6.78c0-0.06,0.01-0.12,0.05-0.17c0.03-0.05,0.09-0.1,0.18-0.14c0.08-0.03,0.2-0.06,0.34-0.08   c0.14-0.02,0.32-0.03,0.54-0.03c0.22,0,0.4,0.01,0.54,0.03c0.15,0.02,0.25,0.05,0.34,0.08c0.08,0.04,0.14,0.08,0.17,0.14   c0.04,0.05,0.05,0.11,0.05,0.17V18.75z M73.69,12.85c0-0.61-0.05-1.21-0.14-1.78c-0.09-0.58-0.25-1.09-0.49-1.53   c-0.23-0.44-0.54-0.8-0.92-1.07c-0.38-0.27-0.86-0.41-1.43-0.41c-0.28,0-0.56,0.04-0.84,0.12c-0.27,0.08-0.55,0.22-0.84,0.4   C68.76,8.76,68.46,9,68.16,9.3c-0.31,0.29-0.64,0.66-0.98,1.11v4.78c0.6,0.74,1.18,1.3,1.73,1.69c0.55,0.39,1.13,0.58,1.72,0.58   c0.55,0,1.02-0.13,1.41-0.4c0.39-0.27,0.71-0.62,0.95-1.06c0.25-0.44,0.42-0.93,0.53-1.47C73.63,13.96,73.69,13.41,73.69,12.85z    M75.98,12.6c0,1.04-0.11,1.97-0.34,2.8c-0.22,0.83-0.55,1.54-0.99,2.12c-0.44,0.59-0.98,1.03-1.61,1.34   c-0.64,0.31-1.37,0.47-2.19,0.47c-0.38,0-0.74-0.04-1.06-0.11c-0.32-0.07-0.64-0.2-0.95-0.36c-0.31-0.17-0.62-0.38-0.93-0.64   c-0.31-0.26-0.64-0.57-0.98-0.93v1.47c0,0.07-0.02,0.13-0.05,0.19c-0.04,0.05-0.09,0.1-0.17,0.13c-0.08,0.03-0.18,0.05-0.3,0.07   c-0.12,0.02-0.28,0.03-0.46,0.03c-0.18,0-0.33-0.01-0.45-0.03c-0.13-0.02-0.23-0.04-0.31-0.07c-0.08-0.03-0.13-0.07-0.16-0.13   c-0.03-0.05-0.04-0.11-0.04-0.19V0.99c0-0.07,0.01-0.14,0.05-0.19c0.03-0.05,0.09-0.1,0.18-0.14c0.08-0.03,0.2-0.06,0.34-0.08   c0.14-0.02,0.32-0.03,0.54-0.03c0.22,0,0.4,0.01,0.54,0.03c0.15,0.02,0.25,0.05,0.34,0.08c0.08,0.04,0.14,0.08,0.17,0.14   c0.04,0.05,0.05,0.11,0.05,0.19v7.15c0.35-0.36,0.69-0.67,1.03-0.92c0.33-0.24,0.65-0.45,0.97-0.6c0.32-0.15,0.64-0.27,0.96-0.34   c0.32-0.07,0.65-0.1,1.01-0.1c0.87,0,1.61,0.17,2.22,0.52c0.61,0.34,1.11,0.81,1.5,1.39c0.39,0.58,0.67,1.26,0.84,2.04   C75.89,10.9,75.98,11.73,75.98,12.6z M59.44,12.76c0-0.65-0.06-1.26-0.18-1.84c-0.12-0.58-0.32-1.08-0.59-1.52   c-0.27-0.44-0.65-0.78-1.12-1.03C57.07,8.13,56.48,8,55.78,8c-0.65,0-1.21,0.11-1.67,0.34c-0.47,0.23-0.85,0.56-1.15,0.98   c-0.3,0.42-0.53,0.92-0.67,1.5c-0.15,0.58-0.22,1.21-0.22,1.89c0,0.66,0.06,1.28,0.18,1.85c0.12,0.58,0.32,1.08,0.6,1.51   c0.28,0.43,0.66,0.77,1.13,1.02c0.47,0.25,1.06,0.38,1.77,0.38c0.64,0,1.19-0.11,1.67-0.34c0.47-0.23,0.86-0.55,1.16-0.97   c0.3-0.42,0.53-0.92,0.67-1.49C59.36,14.09,59.44,13.45,59.44,12.76z M61.72,12.62c0,0.98-0.13,1.87-0.39,2.7   c-0.25,0.82-0.64,1.53-1.15,2.12c-0.51,0.59-1.15,1.06-1.91,1.39c-0.77,0.33-1.66,0.5-2.66,0.5c-0.98,0-1.84-0.15-2.57-0.44   c-0.73-0.29-1.34-0.72-1.82-1.28c-0.49-0.56-0.85-1.24-1.09-2.03c-0.24-0.8-0.36-1.7-0.36-2.71c0-0.98,0.13-1.87,0.38-2.69   c0.25-0.82,0.64-1.53,1.14-2.12C51.8,7.45,52.43,7,53.19,6.66c0.76-0.33,1.65-0.49,2.67-0.49c0.98,0,1.84,0.15,2.57,0.44   c0.73,0.29,1.34,0.72,1.82,1.28c0.49,0.56,0.85,1.23,1.1,2.03C61.6,10.72,61.72,11.62,61.72,12.62z M46.61,18.75   c0,0.07-0.02,0.13-0.05,0.18c-0.04,0.05-0.09,0.09-0.17,0.13c-0.08,0.03-0.19,0.06-0.33,0.08c-0.14,0.02-0.32,0.03-0.53,0.03   c-0.22,0-0.4-0.01-0.54-0.03c-0.14-0.02-0.25-0.05-0.34-0.08c-0.08-0.04-0.14-0.08-0.18-0.13c-0.04-0.05-0.05-0.11-0.05-0.18v-7.28   c0-0.51-0.05-0.97-0.13-1.38c-0.09-0.42-0.23-0.78-0.43-1.08c-0.2-0.3-0.44-0.53-0.74-0.69c-0.3-0.16-0.65-0.24-1.06-0.24   c-0.5,0-1.01,0.19-1.52,0.59c-0.51,0.39-1.07,0.96-1.68,1.72v8.37c0,0.07-0.02,0.13-0.05,0.18c-0.04,0.05-0.1,0.09-0.18,0.13   c-0.08,0.03-0.19,0.06-0.34,0.08c-0.14,0.02-0.32,0.03-0.53,0.03c-0.21,0-0.38-0.01-0.53-0.03c-0.15-0.02-0.26-0.05-0.34-0.08   c-0.09-0.04-0.15-0.08-0.18-0.13c-0.03-0.05-0.05-0.11-0.05-0.18v-7.28c0-0.51-0.05-0.97-0.15-1.38c-0.1-0.42-0.25-0.78-0.44-1.08   c-0.2-0.3-0.44-0.53-0.74-0.69c-0.3-0.16-0.65-0.24-1.06-0.24c-0.5,0-1.02,0.19-1.53,0.59c-0.51,0.39-1.07,0.96-1.68,1.72v8.37   c0,0.07-0.02,0.13-0.05,0.18c-0.04,0.05-0.09,0.09-0.17,0.13c-0.08,0.03-0.19,0.06-0.34,0.08c-0.14,0.02-0.32,0.03-0.54,0.03   c-0.22,0-0.4-0.01-0.54-0.03c-0.15-0.02-0.26-0.05-0.34-0.08c-0.09-0.04-0.15-0.08-0.18-0.13c-0.03-0.05-0.05-0.11-0.05-0.18V6.78   c0-0.07,0.01-0.13,0.04-0.18c0.03-0.05,0.08-0.09,0.16-0.13c0.08-0.04,0.18-0.07,0.31-0.08c0.12-0.01,0.29-0.02,0.49-0.02   c0.2,0,0.36,0,0.49,0.02c0.13,0.01,0.23,0.04,0.3,0.08c0.07,0.04,0.12,0.09,0.15,0.13c0.03,0.05,0.05,0.11,0.05,0.18v1.58   c0.67-0.76,1.33-1.31,1.97-1.66c0.63-0.35,1.28-0.53,1.92-0.53c0.5,0,0.94,0.06,1.34,0.17c0.39,0.12,0.74,0.28,1.04,0.49   c0.3,0.21,0.56,0.46,0.77,0.75c0.21,0.29,0.39,0.61,0.54,0.97c0.4-0.44,0.78-0.8,1.13-1.11c0.36-0.3,0.7-0.54,1.04-0.74   c0.33-0.19,0.65-0.32,0.97-0.4c0.32-0.09,0.63-0.13,0.95-0.13c0.77,0,1.42,0.14,1.94,0.4c0.52,0.27,0.94,0.64,1.27,1.08   c0.32,0.45,0.55,0.98,0.69,1.59c0.14,0.61,0.2,1.25,0.2,1.92V18.75z M24.86,18.75c0,0.07-0.02,0.13-0.05,0.18   c-0.04,0.05-0.09,0.09-0.17,0.13c-0.08,0.03-0.19,0.06-0.33,0.08c-0.14,0.02-0.32,0.03-0.53,0.03c-0.22,0-0.4-0.01-0.54-0.03   c-0.14-0.02-0.25-0.05-0.34-0.08c-0.08-0.04-0.14-0.08-0.18-0.13c-0.04-0.05-0.05-0.11-0.05-0.18v-7.28c0-0.51-0.05-0.97-0.13-1.38   c-0.09-0.42-0.23-0.78-0.43-1.08c-0.2-0.3-0.44-0.53-0.74-0.69c-0.3-0.16-0.65-0.24-1.06-0.24c-0.5,0-1.01,0.19-1.52,0.59   c-0.51,0.39-1.07,0.96-1.68,1.72v8.37c0,0.07-0.02,0.13-0.05,0.18c-0.04,0.05-0.1,0.09-0.18,0.13c-0.08,0.03-0.2,0.06-0.34,0.08   c-0.14,0.02-0.32,0.03-0.53,0.03c-0.21,0-0.38-0.01-0.53-0.03c-0.15-0.02-0.26-0.05-0.35-0.08c-0.09-0.04-0.15-0.08-0.18-0.13   c-0.03-0.05-0.05-0.11-0.05-0.18v-7.28c0-0.51-0.05-0.97-0.15-1.38c-0.1-0.42-0.25-0.78-0.44-1.08c-0.2-0.3-0.44-0.53-0.74-0.69   c-0.3-0.16-0.65-0.24-1.06-0.24c-0.5,0-1.02,0.19-1.53,0.59c-0.51,0.39-1.07,0.96-1.68,1.72v8.37c0,0.07-0.02,0.13-0.05,0.18   c-0.04,0.05-0.09,0.09-0.17,0.13C9,19.09,8.89,19.12,8.75,19.14c-0.14,0.02-0.32,0.03-0.54,0.03c-0.22,0-0.4-0.01-0.54-0.03   c-0.15-0.02-0.26-0.05-0.34-0.08c-0.09-0.04-0.15-0.08-0.18-0.13c-0.03-0.05-0.05-0.11-0.05-0.18V6.78c0-0.07,0.01-0.13,0.04-0.18   C7.17,6.55,7.22,6.51,7.3,6.46C7.38,6.42,7.48,6.4,7.61,6.38C7.73,6.37,7.9,6.36,8.11,6.36c0.2,0,0.36,0,0.49,0.02   c0.13,0.01,0.23,0.04,0.3,0.08C8.96,6.51,9.02,6.55,9.05,6.6c0.03,0.05,0.05,0.11,0.05,0.18v1.58c0.67-0.76,1.33-1.31,1.97-1.66   c0.63-0.35,1.28-0.53,1.92-0.53c0.5,0,0.94,0.06,1.34,0.17c0.39,0.12,0.74,0.28,1.04,0.49c0.3,0.21,0.56,0.46,0.77,0.75   c0.21,0.29,0.39,0.61,0.54,0.97c0.4-0.44,0.78-0.8,1.13-1.11c0.36-0.3,0.7-0.54,1.03-0.74c0.33-0.19,0.65-0.32,0.97-0.4   c0.32-0.09,0.63-0.13,0.95-0.13c0.77,0,1.42,0.14,1.94,0.4c0.52,0.27,0.94,0.64,1.27,1.08c0.32,0.45,0.55,0.98,0.69,1.59   c0.14,0.61,0.2,1.25,0.2,1.92V18.75z M2.77,18.74c0,0.07-0.02,0.14-0.05,0.19c-0.04,0.05-0.1,0.09-0.19,0.13   c-0.09,0.03-0.2,0.06-0.35,0.08c-0.15,0.02-0.33,0.03-0.55,0.03c-0.21,0-0.39-0.01-0.54-0.03c-0.15-0.02-0.27-0.05-0.36-0.08   c-0.09-0.03-0.15-0.07-0.19-0.13c-0.04-0.05-0.05-0.11-0.05-0.19V2.22c0-0.07,0.02-0.14,0.06-0.19c0.04-0.05,0.11-0.1,0.2-0.13   C0.84,1.87,0.96,1.84,1.1,1.82C1.25,1.8,1.42,1.79,1.63,1.79c0.22,0,0.4,0.01,0.55,0.03C2.33,1.84,2.45,1.87,2.53,1.9   c0.09,0.03,0.15,0.07,0.19,0.13c0.04,0.05,0.05,0.11,0.05,0.19V18.74z"></path>
	<path d="M244.51,19.95c0-0.51-0.21-0.91-0.63-1.19c-0.42-0.28-0.99-0.43-1.71-0.44l-3.09-0.1c-0.28,0.22-0.52,0.43-0.7,0.63   c-0.18,0.2-0.32,0.39-0.43,0.57c-0.1,0.18-0.18,0.36-0.22,0.54c-0.04,0.18-0.06,0.36-0.06,0.54c0,0.58,0.29,1.01,0.88,1.31   c0.59,0.29,1.4,0.45,2.44,0.45c0.66,0,1.22-0.06,1.67-0.19c0.45-0.13,0.81-0.3,1.08-0.51c0.28-0.21,0.47-0.45,0.59-0.73   C244.45,20.54,244.51,20.25,244.51,19.95 M243.42,10.48c0-0.81-0.22-1.45-0.67-1.9c-0.45-0.46-1.08-0.69-1.91-0.69   c-0.43,0-0.8,0.07-1.11,0.21c-0.31,0.14-0.58,0.34-0.78,0.58c-0.21,0.25-0.36,0.54-0.46,0.86c-0.1,0.32-0.15,0.66-0.15,1.02   c0,0.78,0.22,1.4,0.67,1.86c0.45,0.45,1.08,0.68,1.88,0.68c0.43,0,0.81-0.07,1.13-0.2c0.32-0.14,0.58-0.33,0.79-0.57   c0.21-0.24,0.36-0.53,0.46-0.84C243.37,11.15,243.42,10.82,243.42,10.48z M246.85,7.34c0,0.31-0.04,0.54-0.13,0.68   c-0.08,0.14-0.19,0.2-0.33,0.2h-1.72c0.31,0.32,0.53,0.67,0.65,1.05c0.12,0.38,0.19,0.78,0.19,1.19c0,0.69-0.11,1.3-0.33,1.83   c-0.22,0.53-0.54,0.98-0.95,1.35c-0.41,0.37-0.9,0.65-1.47,0.85c-0.57,0.2-1.2,0.29-1.89,0.29c-0.49,0-0.95-0.06-1.39-0.19   c-0.44-0.13-0.78-0.29-1.02-0.49c-0.15,0.16-0.27,0.34-0.37,0.54c-0.1,0.21-0.15,0.44-0.15,0.71c0,0.31,0.15,0.57,0.43,0.78   c0.29,0.21,0.67,0.32,1.15,0.34l3.12,0.13c0.59,0.02,1.13,0.1,1.63,0.25c0.49,0.15,0.93,0.35,1.29,0.63   c0.36,0.27,0.64,0.6,0.85,0.99c0.2,0.39,0.3,0.85,0.3,1.38c0,0.55-0.11,1.07-0.35,1.57c-0.23,0.49-0.58,0.93-1.06,1.31   c-0.47,0.38-1.08,0.68-1.82,0.89c-0.74,0.22-1.6,0.33-2.61,0.33c-0.97,0-1.79-0.08-2.46-0.24c-0.68-0.16-1.23-0.39-1.67-0.67   c-0.43-0.29-0.75-0.62-0.94-1.02c-0.2-0.4-0.29-0.83-0.29-1.28c0-0.29,0.04-0.58,0.1-0.85c0.07-0.27,0.18-0.54,0.33-0.79   c0.15-0.25,0.33-0.49,0.54-0.71c0.22-0.23,0.47-0.45,0.75-0.67c-0.43-0.22-0.75-0.5-0.96-0.84c-0.2-0.34-0.31-0.7-0.31-1.09   c0-0.54,0.11-1.03,0.33-1.45c0.22-0.42,0.49-0.8,0.81-1.14c-0.27-0.33-0.49-0.69-0.65-1.11c-0.16-0.41-0.24-0.91-0.24-1.5   c0-0.68,0.11-1.29,0.35-1.83c0.23-0.54,0.55-1,0.96-1.37c0.41-0.37,0.9-0.66,1.47-0.86c0.57-0.2,1.2-0.3,1.87-0.3   c0.37,0,0.7,0.02,1.02,0.06c0.31,0.05,0.61,0.1,0.89,0.18h3.62c0.15,0,0.26,0.07,0.34,0.22C246.81,6.81,246.85,7.04,246.85,7.34z    M232.84,18.75c0,0.07-0.02,0.13-0.05,0.18c-0.04,0.05-0.09,0.09-0.17,0.13c-0.08,0.03-0.19,0.06-0.34,0.08   c-0.14,0.02-0.32,0.03-0.53,0.03c-0.23,0-0.41-0.01-0.55-0.03c-0.15-0.02-0.25-0.05-0.34-0.08c-0.08-0.04-0.14-0.08-0.17-0.13   c-0.04-0.05-0.05-0.11-0.05-0.18v-7.01c0-0.68-0.05-1.23-0.16-1.65c-0.1-0.42-0.26-0.78-0.46-1.08c-0.2-0.3-0.46-0.53-0.78-0.69   c-0.32-0.16-0.69-0.24-1.12-0.24c-0.55,0-1.09,0.19-1.64,0.59c-0.55,0.39-1.12,0.96-1.72,1.72v8.37c0,0.07-0.02,0.13-0.05,0.18   c-0.04,0.05-0.09,0.09-0.17,0.13c-0.08,0.03-0.19,0.06-0.34,0.08c-0.14,0.02-0.32,0.03-0.54,0.03c-0.22,0-0.4-0.01-0.54-0.03   c-0.15-0.02-0.26-0.05-0.34-0.08c-0.09-0.04-0.15-0.08-0.18-0.13c-0.03-0.05-0.05-0.11-0.05-0.18V6.78c0-0.07,0.01-0.13,0.04-0.18   c0.03-0.05,0.08-0.09,0.16-0.13c0.08-0.04,0.18-0.07,0.31-0.08c0.12-0.01,0.29-0.02,0.49-0.02c0.2,0,0.36,0,0.49,0.02   c0.13,0.01,0.23,0.04,0.3,0.08c0.07,0.04,0.12,0.09,0.15,0.13c0.03,0.05,0.05,0.11,0.05,0.18v1.58c0.67-0.76,1.34-1.31,2.01-1.66   c0.67-0.35,1.34-0.53,2.02-0.53c0.79,0,1.47,0.14,2.01,0.4c0.54,0.27,0.99,0.64,1.32,1.08c0.34,0.45,0.58,0.98,0.72,1.59   c0.15,0.61,0.22,1.34,0.22,2.19V18.75z M218.48,18.75c0,0.07-0.01,0.13-0.05,0.18c-0.03,0.05-0.09,0.09-0.17,0.13   c-0.08,0.03-0.18,0.06-0.31,0.08c-0.13,0.02-0.29,0.03-0.47,0.03c-0.2,0-0.37-0.01-0.49-0.03c-0.13-0.02-0.23-0.05-0.31-0.08   c-0.07-0.04-0.13-0.08-0.15-0.13c-0.03-0.05-0.04-0.11-0.04-0.18v-1.58c-0.69,0.75-1.36,1.3-2.02,1.64   c-0.66,0.34-1.34,0.52-2.02,0.52c-0.8,0-1.47-0.13-2.01-0.4c-0.54-0.26-0.99-0.63-1.33-1.08c-0.34-0.45-0.58-0.99-0.73-1.59   c-0.15-0.61-0.22-1.35-0.22-2.22V6.78c0-0.07,0.01-0.13,0.05-0.18c0.03-0.05,0.09-0.09,0.18-0.13c0.09-0.04,0.2-0.07,0.35-0.08   c0.14-0.01,0.32-0.02,0.53-0.02c0.21,0,0.39,0,0.53,0.02c0.14,0.01,0.25,0.04,0.34,0.08c0.08,0.04,0.14,0.09,0.18,0.13   c0.04,0.05,0.05,0.11,0.05,0.18v6.97c0,0.7,0.05,1.26,0.15,1.68c0.1,0.42,0.25,0.78,0.46,1.08c0.21,0.3,0.48,0.53,0.79,0.69   c0.32,0.16,0.69,0.25,1.12,0.25c0.55,0,1.1-0.2,1.64-0.59c0.55-0.39,1.13-0.96,1.74-1.72V6.78c0-0.07,0.01-0.13,0.05-0.18   c0.03-0.05,0.09-0.09,0.18-0.13c0.09-0.04,0.2-0.07,0.34-0.08c0.14-0.01,0.32-0.02,0.54-0.02c0.21,0,0.39,0,0.53,0.02   c0.14,0.01,0.25,0.04,0.33,0.08c0.08,0.04,0.14,0.09,0.18,0.13c0.04,0.05,0.06,0.11,0.06,0.18V18.75z M205.33,17.86   c0,0.26-0.02,0.46-0.05,0.61c-0.03,0.15-0.09,0.26-0.16,0.33c-0.07,0.07-0.18,0.14-0.32,0.2c-0.14,0.06-0.3,0.11-0.49,0.15   c-0.18,0.04-0.37,0.07-0.58,0.1c-0.2,0.03-0.4,0.04-0.61,0.04c-0.62,0-1.15-0.08-1.59-0.25c-0.44-0.16-0.8-0.41-1.09-0.74   c-0.28-0.33-0.49-0.75-0.62-1.26c-0.13-0.51-0.19-1.11-0.19-1.8V8.27h-1.68c-0.13,0-0.24-0.07-0.32-0.21   c-0.08-0.14-0.12-0.37-0.12-0.69c0-0.17,0.01-0.31,0.03-0.42c0.02-0.12,0.05-0.21,0.09-0.29c0.04-0.07,0.09-0.13,0.14-0.16   c0.06-0.03,0.12-0.05,0.2-0.05h1.67V3.61c0-0.06,0.01-0.12,0.05-0.17c0.03-0.05,0.09-0.1,0.18-0.14c0.08-0.04,0.19-0.07,0.34-0.09   c0.14-0.02,0.32-0.03,0.54-0.03c0.22,0,0.4,0.01,0.54,0.03c0.15,0.02,0.25,0.05,0.34,0.09c0.08,0.04,0.14,0.09,0.17,0.14   c0.04,0.05,0.05,0.11,0.05,0.17v2.84h3.05c0.07,0,0.13,0.01,0.19,0.05c0.05,0.03,0.1,0.09,0.14,0.16c0.04,0.08,0.07,0.17,0.09,0.29   c0.02,0.11,0.03,0.25,0.03,0.42c0,0.32-0.04,0.55-0.12,0.69c-0.08,0.14-0.19,0.21-0.32,0.21h-3.05v6.66c0,0.82,0.12,1.44,0.36,1.86   c0.24,0.42,0.68,0.63,1.3,0.63c0.2,0,0.38-0.02,0.54-0.06c0.16-0.04,0.3-0.08,0.42-0.13c0.12-0.05,0.23-0.09,0.32-0.13   c0.09-0.04,0.17-0.06,0.24-0.06c0.05,0,0.09,0.01,0.13,0.03c0.04,0.02,0.07,0.06,0.09,0.13c0.02,0.06,0.04,0.15,0.06,0.25   C205.32,17.57,205.33,17.7,205.33,17.86z M195.07,18.75c0,0.07-0.02,0.13-0.05,0.18c-0.04,0.05-0.09,0.09-0.17,0.13   c-0.08,0.03-0.19,0.06-0.34,0.08c-0.14,0.02-0.32,0.03-0.54,0.03c-0.22,0-0.4-0.01-0.54-0.03c-0.15-0.02-0.26-0.05-0.34-0.08   c-0.09-0.04-0.15-0.08-0.18-0.13c-0.03-0.05-0.05-0.11-0.05-0.18V0.99c0-0.07,0.01-0.14,0.05-0.19c0.03-0.05,0.09-0.1,0.18-0.14   c0.08-0.03,0.2-0.06,0.34-0.08c0.14-0.02,0.32-0.03,0.54-0.03c0.22,0,0.4,0.01,0.54,0.03c0.15,0.02,0.25,0.05,0.34,0.08   c0.08,0.04,0.14,0.08,0.17,0.14c0.04,0.05,0.05,0.11,0.05,0.19V18.75z M186.66,13.28h-1.87c-0.6,0-1.12,0.05-1.57,0.15   c-0.44,0.1-0.81,0.25-1.1,0.45c-0.29,0.2-0.5,0.44-0.64,0.72c-0.14,0.28-0.2,0.6-0.2,0.97c0,0.62,0.2,1.12,0.59,1.48   c0.39,0.37,0.94,0.55,1.66,0.55c0.57,0,1.11-0.15,1.6-0.44c0.49-0.29,1.01-0.74,1.55-1.34V13.28z M188.84,18.76   c0,0.1-0.04,0.19-0.1,0.24c-0.07,0.05-0.17,0.09-0.3,0.12c-0.12,0.03-0.3,0.04-0.54,0.04c-0.23,0-0.41-0.01-0.55-0.04   c-0.14-0.03-0.24-0.06-0.3-0.12c-0.06-0.05-0.1-0.13-0.1-0.24v-1.2c-0.52,0.56-1.1,0.99-1.75,1.3c-0.64,0.3-1.33,0.46-2.04,0.46   c-0.63,0-1.2-0.08-1.71-0.25c-0.51-0.16-0.94-0.4-1.3-0.71c-0.36-0.31-0.64-0.69-0.84-1.14c-0.2-0.45-0.3-0.97-0.3-1.54   c0-0.68,0.14-1.26,0.41-1.76c0.27-0.5,0.67-0.91,1.18-1.24c0.51-0.33,1.14-0.58,1.89-0.74c0.74-0.16,1.58-0.24,2.51-0.24h1.65   v-0.94c0-0.46-0.05-0.87-0.15-1.23c-0.1-0.35-0.25-0.65-0.47-0.89c-0.22-0.24-0.5-0.41-0.84-0.53c-0.34-0.12-0.77-0.18-1.28-0.18   c-0.54,0-1.03,0.06-1.45,0.2c-0.43,0.13-0.81,0.27-1.13,0.43c-0.32,0.16-0.59,0.3-0.81,0.43c-0.21,0.13-0.38,0.2-0.48,0.2   c-0.07,0-0.14-0.02-0.19-0.05c-0.05-0.03-0.1-0.09-0.14-0.16c-0.04-0.07-0.07-0.16-0.09-0.27c-0.02-0.11-0.03-0.23-0.03-0.37   c0-0.22,0.01-0.4,0.05-0.52c0.03-0.13,0.11-0.25,0.23-0.36c0.12-0.11,0.33-0.25,0.62-0.41c0.29-0.15,0.63-0.3,1.01-0.43   c0.38-0.13,0.79-0.24,1.25-0.32c0.45-0.09,0.91-0.13,1.37-0.13c0.86,0,1.59,0.09,2.19,0.29c0.6,0.2,1.09,0.49,1.46,0.86   c0.37,0.38,0.64,0.84,0.81,1.4c0.17,0.56,0.25,1.21,0.25,1.96V18.76z M177.39,6.75c0,0.06-0.01,0.14-0.03,0.23   c-0.02,0.09-0.05,0.2-0.1,0.33l-3.52,11.37c-0.03,0.1-0.07,0.18-0.13,0.24c-0.05,0.06-0.14,0.11-0.24,0.15   c-0.1,0.04-0.25,0.06-0.42,0.08c-0.18,0.01-0.4,0.02-0.66,0.02c-0.28,0-0.51-0.01-0.69-0.03c-0.19-0.02-0.33-0.05-0.44-0.08   c-0.11-0.04-0.19-0.09-0.25-0.15c-0.05-0.06-0.09-0.14-0.12-0.23L168.28,10l-0.03-0.12L168.23,10l-2.33,8.69   c-0.02,0.1-0.07,0.18-0.12,0.24c-0.06,0.06-0.15,0.11-0.26,0.15c-0.12,0.04-0.27,0.06-0.45,0.08c-0.18,0.01-0.4,0.02-0.67,0.02   c-0.27,0-0.49-0.01-0.67-0.03c-0.17-0.02-0.31-0.05-0.42-0.08c-0.11-0.04-0.2-0.09-0.25-0.15c-0.05-0.06-0.1-0.14-0.12-0.23   l-3.5-11.37c-0.05-0.13-0.08-0.24-0.1-0.33c-0.02-0.09-0.03-0.16-0.03-0.23c0-0.08,0.02-0.15,0.05-0.2   c0.04-0.05,0.1-0.09,0.18-0.12c0.08-0.03,0.2-0.05,0.34-0.06c0.15-0.01,0.32-0.01,0.52-0.01c0.24,0,0.44,0,0.6,0.02   c0.15,0.01,0.27,0.04,0.35,0.07c0.08,0.03,0.14,0.08,0.17,0.13c0.03,0.06,0.06,0.13,0.09,0.21l2.89,9.89l0.03,0.12l0.03-0.12   l2.65-9.89c0.02-0.08,0.05-0.15,0.09-0.21c0.04-0.05,0.1-0.1,0.18-0.13c0.08-0.03,0.19-0.05,0.33-0.07   c0.14-0.01,0.32-0.02,0.54-0.02c0.21,0,0.39,0,0.52,0.02c0.14,0.01,0.25,0.04,0.33,0.07c0.08,0.03,0.14,0.07,0.17,0.13   c0.04,0.05,0.06,0.11,0.08,0.19l2.86,9.91l0.03,0.12l0.01-0.12l2.85-9.89c0.01-0.08,0.05-0.15,0.09-0.21   c0.04-0.05,0.1-0.1,0.19-0.13c0.08-0.03,0.2-0.05,0.35-0.07c0.15-0.01,0.33-0.02,0.56-0.02c0.21,0,0.39,0,0.51,0.01   c0.13,0.01,0.23,0.03,0.3,0.07c0.08,0.03,0.13,0.07,0.16,0.12C177.38,6.61,177.39,6.67,177.39,6.75z"></path>
</g>
</svg>